<svg width="178" height="156" viewBox="0 0 178 156" fill="none" xmlns="http://www.w3.org/2000/svg">
<path d="M39.901 65.8003L42.0762 64.9058L50.5915 61.3933C53.6233 60.1305 55.4554 57.2233 55.4554 54.145C55.4554 53.119 55.2446 52.0929 54.8227 51.0932L54.7831 50.9748L54.77 50.9484L54.7304 50.8563L54.7173 50.8301L54.6648 50.7248L54.6512 50.6984L54.6252 50.6195L54.5856 50.5537V50.5274C54.3352 49.9749 54.0582 49.4225 53.7814 48.8962C53.6761 48.7252 53.597 48.5542 53.5046 48.3963C53.2674 47.9753 53.0434 47.5676 52.7927 47.1597C52.6611 46.9756 52.5424 46.7651 52.4104 46.5809C52.226 46.2784 52.0149 45.9627 51.8041 45.6733C50.6839 44.1078 49.4185 42.6608 48.0475 41.3979C39.2155 33.1236 25.7835 31.124 14.645 37.2279C5.33867 42.3453 0 52.2508 0 62.5906C0 64.8532 0.263919 67.1289 0.777829 69.3916C1.13377 70.9175 1.67407 72.4303 2.35956 73.8511L3.111 75.4033C3.92807 76.9424 4.89032 78.4025 5.97131 79.7707C6.43282 80.3364 6.90749 80.902 7.4214 81.4151C13.0764 87.4399 21.0378 90.8339 29.3424 90.7418C37.3041 90.7418 43.7763 88.3871 50.6837 82.9147C51.5272 82.2438 51.646 80.9809 50.921 80.1522L43.2623 71.1544C43.0911 70.957 42.8932 70.7992 42.6693 70.6939C42.0102 70.3387 41.2059 70.4046 40.5865 70.8781C36.6056 73.8773 33.2574 74.7456 29.0525 74.7456C26.7061 74.8377 24.3993 74.2326 22.4089 73.0091L23.1472 72.6935L39.901 65.8003ZM16.965 60.0254L16.4114 60.2621V60.249C16.4771 59.5781 16.609 58.9335 16.7802 58.2889C17.756 54.7635 20.2604 51.8168 23.6877 50.304C25.0847 49.6726 26.6008 49.37 28.143 49.37C30.331 49.3831 32.4666 49.9488 34.3515 51.0406C34.8394 51.3169 35.3137 51.6326 35.762 51.9747C35.8412 52.0404 35.9201 52.1194 35.9992 52.1851L26.2845 56.1973L16.965 60.0254Z" fill="white"/>
<path d="M116.363 65.2609C108.849 65.2609 102.772 71.3253 102.772 78.8235V101.976C89.2873 95.1881 72.5335 99.9501 64.8485 113.618C60.0505 122.155 60.0505 132.758 64.8485 141.283C72.5335 154.963 89.2874 159.726 102.772 152.938V154.293C102.772 155.24 103.524 155.99 104.473 155.99H116.784C117.72 155.99 118.485 155.24 118.485 154.293V67.3788C118.485 66.2081 117.536 65.2609 116.363 65.2609ZM89.8804 140.309C82.7756 140.309 77.0019 134.547 77.0019 127.457C77.0019 120.353 82.7756 114.591 89.8804 114.591C96.9984 114.591 102.772 120.353 102.772 127.457C102.759 134.547 96.9984 140.296 89.8804 140.309Z" fill="white"/>
<path d="M117.061 0.144701C116.863 0.0526127 116.626 0 116.376 0C114.886 0 113.449 0.236789 112.105 0.684092C106.687 2.47311 102.772 7.56404 102.772 13.5758V36.7282C89.2873 29.9404 72.5335 34.6893 64.8485 48.3571C60.0505 56.8946 60.0505 67.5105 64.8485 76.0479C66.0215 78.1396 67.4056 80.0207 68.9874 81.6783C76.9888 90.2551 89.4453 93.0571 100.333 88.7555V76.4294C100.333 76.4294 100.558 70.6151 106.041 66.1819C110.892 62.275 117.088 62.4459 118.485 62.538V2.1311C118.485 1.21022 117.892 0.407828 117.061 0.144701ZM89.8937 75.0613C85.9656 75.0613 82.4461 73.2986 80.0866 70.5492C78.1753 68.2997 77.002 65.3926 77.002 62.2091C77.002 55.1055 82.7625 49.3437 89.8937 49.3437C93.1232 49.3437 96.089 50.5408 98.343 52.5271C101.059 54.8818 102.772 58.3415 102.772 62.2091C102.759 69.2995 96.9985 75.0613 89.8937 75.0613Z" fill="white"/>
<path d="M42.0629 130.154L50.5915 126.641C53.6233 125.392 55.4422 122.471 55.4422 119.393C55.4422 118.38 55.2446 117.341 54.8228 116.341L54.7832 116.223L54.77 116.196L54.7305 116.104L54.7173 116.078L54.6649 115.973V115.946L54.6253 115.867L54.5989 115.802L54.5857 115.775C54.3354 115.223 54.0583 114.67 53.7815 114.144C53.6892 113.973 53.5971 113.802 53.5048 113.644C53.2808 113.223 53.0301 112.815 52.7797 112.408C52.6613 112.223 52.5425 112.026 52.4106 111.829C52.213 111.526 52.0151 111.224 51.8043 110.921H51.7911C43.4341 99.1871 27.5106 95.4116 14.6453 102.489C5.35183 107.606 0 117.486 0 127.825C0 130.088 0.263919 132.377 0.791057 134.639C1.147 136.179 1.67414 137.678 2.37279 139.099L3.11106 140.651C3.92813 142.19 4.89039 143.65 5.97137 145.019L5.98454 145.032C11.6791 152.056 20.2868 156.095 29.3556 155.99C37.3042 155.99 43.7763 153.635 50.6838 148.176C51.5405 147.492 51.6328 146.229 50.921 145.4L43.2624 136.402C42.5901 135.613 41.4171 135.494 40.5865 136.126C36.6056 139.125 33.2574 139.993 29.0525 139.993C26.7193 140.085 24.4126 139.48 22.4221 138.257L39.9142 131.048L42.0629 130.154ZM26.2845 121.445L16.9782 125.286L16.3983 125.523V125.51C16.8726 121.129 19.6541 117.341 23.6743 115.552C25.0848 114.933 26.6141 114.618 28.143 114.618C30.8981 114.631 33.5869 115.539 35.7621 117.222C35.8413 117.288 35.9201 117.367 35.9993 117.446L26.2845 121.445Z" fill="white"/>
<path d="M176.036 98.8714H164.251C163.171 98.8714 162.287 99.7528 162.287 100.832V130.917C162.287 136.205 157.911 140.467 152.586 140.309C147.563 140.151 143.464 135.547 143.464 130.522V100.832C143.464 99.7528 142.581 98.8714 141.5 98.8714H129.702C128.621 98.8714 127.738 99.7528 127.738 100.832V130.325C127.738 136.678 129.887 142.94 134.144 147.649C141.408 155.687 152.652 158.055 162.287 154.174V155.131C162.287 155.538 162.303 155.682 162.465 155.832C162.627 155.982 162.754 155.99 163.216 155.99H165.978C172.622 155.99 178 150.622 178 143.993V100.832C178 99.7529 177.117 98.8714 176.036 98.8714Z" fill="white"/>
<path d="M176.036 33.6454H164.251C163.171 33.6454 162.287 34.5268 162.287 35.6055V65.6905C162.287 70.9787 157.911 75.2409 152.586 75.083C147.563 74.9252 143.464 70.321 143.464 65.2959V35.6055C143.464 34.5268 142.581 33.6454 141.5 33.6454H129.702C128.621 33.6454 127.738 34.5268 127.738 35.6055V65.0986C127.738 71.4524 129.887 77.714 134.144 82.4235C141.408 90.461 152.652 92.829 162.287 88.9483V89.905C162.287 90.3124 162.303 90.4562 162.465 90.6059C162.627 90.7557 162.754 90.7636 163.216 90.7636H165.978C172.622 90.7636 178 85.3964 178 78.7665V35.6055C178 34.5268 177.117 33.6454 176.036 33.6454Z" fill="white"/>
</svg>
