<svg width="50" height="44" viewBox="0 0 50 44" fill="none" xmlns="http://www.w3.org/2000/svg">
<path d="M11.2081 18.4056L11.8192 18.1554L14.2111 17.1729C15.0627 16.8197 15.5774 16.0065 15.5774 15.1454C15.5774 14.8584 15.5181 14.5714 15.3996 14.2917L15.3885 14.2586L15.3848 14.2513L15.3737 14.2255L15.37 14.2181L15.3553 14.1887L15.3515 14.1813L15.3441 14.1592L15.333 14.1409V14.1335C15.2627 13.9789 15.1849 13.8244 15.1071 13.6772C15.0776 13.6294 15.0553 13.5815 15.0294 13.5374C14.9628 13.4196 14.8998 13.3056 14.8294 13.1915C14.7924 13.14 14.7591 13.0811 14.722 13.0296C14.6702 12.945 14.6109 12.8567 14.5517 12.7757C14.237 12.3378 13.8816 11.933 13.4965 11.5798C11.0156 9.26528 7.24255 8.70597 4.11377 10.4133C1.49963 11.8448 0 14.6156 0 17.5078C0 18.1407 0.0741345 18.7773 0.218491 19.4102C0.318475 19.837 0.470245 20.2602 0.662798 20.6576L0.873876 21.0918C1.10339 21.5223 1.37369 21.9307 1.67733 22.3134C1.80697 22.4717 1.94031 22.6299 2.08466 22.7734C3.67314 24.4586 5.9095 25.408 8.24224 25.3823C10.4787 25.3823 12.2967 24.7236 14.237 23.1929C14.4739 23.0052 14.5073 22.652 14.3036 22.4201L12.1523 19.9033C12.1043 19.8481 12.0487 19.8039 11.9857 19.7745C11.8006 19.6751 11.5747 19.6935 11.4007 19.826C10.2825 20.6649 9.34197 20.9078 8.16082 20.9078C7.50172 20.9336 6.85375 20.7643 6.29463 20.4221L6.50201 20.3338L11.2081 18.4056ZM4.76544 16.7903L4.60995 16.8565V16.8528C4.62839 16.6652 4.66546 16.4848 4.71354 16.3045C4.98763 15.3184 5.69112 14.4942 6.65385 14.071C7.04626 13.8944 7.47214 13.8097 7.90533 13.8097C8.51995 13.8134 9.11983 13.9716 9.6493 14.277C9.78635 14.3543 9.91959 14.4426 10.0455 14.5383C10.0678 14.5567 10.0899 14.5788 10.1121 14.5972L7.38328 15.7195L4.76544 16.7903Z" fill="#509BCA"/>
<path d="M32.6861 18.2548C30.5756 18.2548 28.8686 19.9511 28.8686 22.0485V28.5247C25.0807 26.626 20.3746 27.958 18.2159 31.7812C16.8681 34.1693 16.8681 37.1351 18.2159 39.5195C20.3746 43.3464 25.0807 44.6784 28.8686 42.7797V43.1587C28.8686 43.4237 29.0797 43.6334 29.3462 43.6334H32.8046C33.0675 43.6334 33.2822 43.4237 33.2822 43.1587V18.8472C33.2822 18.5197 33.0156 18.2548 32.6861 18.2548ZM25.2473 39.2472C23.2516 39.2472 21.6297 37.6355 21.6297 35.6522C21.6297 33.6652 23.2516 32.0535 25.2473 32.0535C27.2467 32.0535 28.8686 33.6652 28.8686 35.6522C28.8649 37.6356 27.2467 39.2436 25.2473 39.2472Z" fill="#509BCA"/>
<path d="M32.8823 0.0404757C32.8267 0.0147168 32.7601 0 32.6898 0C32.2713 0 31.8677 0.0662346 31.4901 0.191354C29.9682 0.69178 28.8685 2.11582 28.8685 3.79742V10.2736C25.0807 8.37493 20.3745 9.7033 18.2158 13.5265C16.8681 15.9146 16.8681 18.884 18.2158 21.2722C18.5453 21.8572 18.9341 22.3834 19.3784 22.8471C21.626 25.2462 25.1251 26.03 28.1835 24.8267V21.3789C28.1835 21.3789 28.2465 19.7525 29.7868 18.5124C31.1494 17.4196 32.8897 17.4674 33.2822 17.4931V0.596112C33.2822 0.338523 33.1156 0.114078 32.8823 0.0404757ZM25.251 20.9962C24.1476 20.9962 23.159 20.5031 22.4962 19.7341C21.9593 19.1048 21.6297 18.2916 21.6297 17.4011C21.6297 15.4141 23.2479 13.8024 25.251 13.8024C26.1582 13.8024 26.9913 14.1373 27.6244 14.6929C28.3872 15.3516 28.8686 16.3193 28.8686 17.4011C28.8649 19.3845 27.2467 20.9962 25.251 20.9962Z" fill="#509BCA"/>
<path d="M11.8154 36.4066L14.2111 35.4241C15.0627 35.0746 15.5737 34.2577 15.5737 33.3966C15.5737 33.1133 15.5182 32.8226 15.3997 32.5429L15.3885 32.5098L15.3848 32.5025L15.3737 32.4767L15.37 32.4693L15.3553 32.4399V32.4325L15.3442 32.4105L15.3368 32.3921L15.3331 32.3847C15.2627 32.2302 15.1849 32.0756 15.1072 31.9284C15.0812 31.8806 15.0554 31.8328 15.0294 31.7886C14.9665 31.6708 14.8961 31.5568 14.8258 31.4427C14.7925 31.3912 14.7591 31.336 14.7221 31.2808C14.6666 31.1962 14.611 31.1115 14.5518 31.0269H14.5481C12.2006 27.7446 7.72769 26.6886 4.11384 28.6682C1.50332 30.0997 0 32.8631 0 35.7553C0 36.3882 0.0741345 37.0285 0.222207 37.6614C0.32219 38.0919 0.470263 38.5114 0.666514 38.9088L0.873894 39.343C1.10341 39.7735 1.3737 40.1819 1.67735 40.5646L1.68105 40.5683C3.28064 42.5332 5.69853 43.6629 8.24596 43.6335C10.4787 43.6335 12.2967 42.9748 14.237 41.4477C14.4777 41.2564 14.5036 40.9031 14.3037 40.6713L12.1524 38.1544C11.9635 37.9337 11.634 37.9005 11.4007 38.0772C10.2825 38.9161 9.34197 39.159 8.16082 39.159C7.50543 39.1847 6.85746 39.0155 6.29834 38.6732L11.2119 36.6568L11.8154 36.4066ZM7.3833 33.9707L4.76915 35.0451L4.60625 35.1113V35.1077C4.7395 33.8824 5.52081 32.8226 6.65008 32.3222C7.0463 32.1492 7.47587 32.0609 7.90535 32.0609C8.67924 32.0646 9.43452 32.3185 10.0455 32.7895C10.0678 32.8079 10.0899 32.83 10.1122 32.852L7.3833 33.9707Z" fill="#509BCA"/>
<path d="M49.4483 27.6564H46.138C45.8344 27.6564 45.5863 27.9029 45.5863 28.2047V36.62C45.5863 38.0993 44.3571 39.2915 42.8612 39.2473C41.4504 39.2032 40.2988 37.9153 40.2988 36.5096V28.2047C40.2988 27.9029 40.0508 27.6564 39.7472 27.6564H36.4332C36.1296 27.6564 35.8815 27.9029 35.8815 28.2047V36.4545C35.8815 38.2317 36.4851 39.9833 37.681 41.3006C39.7212 43.5489 42.8797 44.2112 45.5863 43.1257V43.3933C45.5863 43.5073 45.5908 43.5475 45.6364 43.5894C45.6819 43.6313 45.7173 43.6335 45.8472 43.6335H46.6231C48.4893 43.6335 50 42.1322 50 40.2777V28.2047C50 27.9029 49.7519 27.6564 49.4483 27.6564Z" fill="#509BCA"/>
<path d="M49.4483 9.41125H46.138C45.8344 9.41125 45.5863 9.6578 45.5863 9.95954V18.3749C45.5863 19.8541 44.3571 21.0463 42.8612 21.0022C41.4504 20.958 40.2988 19.6702 40.2988 18.2645V9.95954C40.2988 9.6578 40.0508 9.41125 39.7472 9.41125H36.4332C36.1296 9.41125 35.8815 9.6578 35.8815 9.95954V18.2094C35.8815 19.9866 36.4851 21.7381 37.681 23.0555C39.7212 25.3037 42.8797 25.9661 45.5863 24.8806V25.1482C45.5863 25.2622 45.5908 25.3024 45.6364 25.3443C45.6819 25.3862 45.7173 25.3884 45.8472 25.3884H46.6231C48.4893 25.3884 50 23.8871 50 22.0325V9.95954C50 9.6578 49.7519 9.41125 49.4483 9.41125Z" fill="#509BCA"/>
</svg>
