<svg width="1140" height="847" viewBox="0 0 1140 847" fill="none" xmlns="http://www.w3.org/2000/svg">
<path d="M187.372 46.3794H378.454L392.368 58.438H173.458L187.372 46.3794Z" fill="#276272"/>
<path d="M13.9138 37.1035H179.951L166.037 49.1621H0L13.9138 37.1035Z" fill="#276272"/>
<path d="M952.628 46.3794H761.546L747.632 58.438H966.542L952.628 46.3794Z" fill="#276272"/>
<path d="M734.169 58.438H405.832L381.237 37.1036H758.764L734.169 58.438Z" fill="#276272"/>
<path d="M1126.09 37.1035H960.049L973.963 49.1621H1140L1126.09 37.1035Z" fill="#276272"/>
<path d="M13.9136 37.1035H1126.09L1084.34 0.000179291H56.5824L13.9136 37.1035Z" fill="#276272"/>
<path d="M0 67.7134H166.037L182.734 82.5547H0V67.7134Z" fill="#276272"/>
<path d="M0 67.7134L7.25773e-06 233.751L14.8413 250.447L14.8413 67.7134L0 67.7134Z" fill="#276272"/>
<path d="M1140 67.7134H973.963L957.266 82.5547H1140V67.7134Z" fill="#276272"/>
<path d="M1140 67.7134L1140 233.751L1125.16 250.447L1125.16 67.7134L1140 67.7134Z" fill="#276272"/>
<path d="M0 846.884H166.037L182.734 832.042H0V846.884Z" fill="#276272"/>
<path d="M0 846.884L7.25773e-06 680.846L14.8413 664.15L14.8413 846.884L0 846.884Z" fill="#276272"/>
<path d="M1140 846.884H973.963L957.266 832.042H1140V846.884Z" fill="#276272"/>
<path d="M1140 846.884L1140 680.846L1125.16 664.15L1125.16 846.884L1140 846.884Z" fill="#276272"/>
<rect x="14.8418" y="82.5547" width="1110.32" height="749.487" fill="#338094"/>
<rect x="33.3926" y="101.106" width="1074.14" height="714.239" fill="#276272"/>
<rect x="41.7412" y="108.527" width="1057.45" height="699.398" fill="white"/>
</svg>
